<?xml version="1.0" encoding="utf-8"?>
<!-- Generator: Adobe Illustrator 26.0.0, SVG Export Plug-In . SVG Version: 6.00 Build 0)  -->
<svg version="1.1" id="Layer_1" xmlns="http://www.w3.org/2000/svg" xmlns:xlink="http://www.w3.org/1999/xlink" x="0px" y="0px"
	 viewBox="0 0 512 512" style="enable-background:new 0 0 512 512;" xml:space="preserve">
<style type="text/css">
	.st0{fill:#9D9E9F;}
</style>
<g>
	<path class="st0" d="M485.1,111.5v223.4l-76.4-44.7v-79.8c0-4.2-5-7.3-8.4-4.6l-100.4,58.4c-3.4,1.9-5.7,5.7-5.7,9.9v117.6
		c0,4.2,5,7.3,8.4,5l68.3-40.1l76,43.9L256,512L65.1,400.9l76-44.3l68.3,40.1c3.4,2.3,8.4-0.8,8.4-5V274.1c0-4.2-2.3-8-5.7-9.9
		l-100-58.8c-3.8-2.3-8.8,0.8-8.8,5v79.8l-76.4,44.7c0,0,0-223.4,0-223.4L217.8,0v88.6l-68.7,40.1c-3.8,2.3-3.8,7.6,0,9.9
		l101.2,59.2c3.4,1.9,8,1.9,11.5,0l101.2-59.2c3.8-2.3,3.8-7.6,0-9.9l-68.7-40.1V0C294.2,0,485.1,111.5,485.1,111.5z"/>
</g>
</svg>
